<?xml version="1.0" encoding="iso-8859-1"?>
<!-- Generator: Adobe Illustrator 21.1.0, SVG Export Plug-In . SVG Version: 6.00 Build 0)  -->
<svg version="1.1" id="Layer_1_1_" xmlns="http://www.w3.org/2000/svg" xmlns:xlink="http://www.w3.org/1999/xlink" x="0px" y="0px"
	 viewBox="0 0 16 16" style="enable-background:new 0 0 16 16;" xml:space="preserve">
<path d="M11,0C8.243,0,6,2.243,6,5c0,1.198,0.441,2.284,1.146,3.147l-7,7l0.707,0.707l7-7C8.716,9.559,9.802,10,11,10
	c2.757,0,5-2.243,5-5S13.757,0,11,0z M11,9C8.791,9,7,7.209,7,5c0-2.209,1.791-4,4-4s4,1.791,4,4C15,7.209,13.209,9,11,9z"/>
</svg>
